<svg width="1764" height="439" viewBox="0 0 1764 439" fill="none" xmlns="http://www.w3.org/2000/svg">
<path d="M1707.33 94.3096V125.619H1764V63H1707.33V94.3096ZM567.815 73.4176C567.076 73.4745 564.476 73.6453 562.066 73.8161C543.396 75.1254 528.175 78.9679 517.991 84.9737C502.141 94.3096 494.257 109.452 492.121 134.728C491.382 143.693 491.519 162.707 492.422 173.153C495.133 204.861 505.481 217.869 536.196 228.229C542.767 230.421 551.28 232.727 563.079 235.488C568.555 236.768 575.973 238.59 579.587 239.529C599.243 244.653 605.594 248.78 607.647 257.717C609.071 263.951 609.071 278.866 607.674 285.583C605.211 297.224 597.792 301.465 578.711 302.035C553.635 302.832 530.256 299.388 502.168 290.792C499.321 289.938 496.912 289.34 496.775 289.454C496.529 289.767 486.838 336.532 487.002 336.703C487.358 337.073 496.419 340.773 500.608 342.253C517.006 348.088 534.335 351.732 554.675 353.639C559.931 354.123 579.888 354.293 586.705 353.923C623.279 351.874 644.194 343.563 655.993 326.371C665.383 312.708 668.805 293.012 667.627 259.397C666.998 241.522 665.574 233.182 661.714 224.814C654.186 208.533 637.35 199.168 597.244 188.922C571.84 182.432 568.527 181.493 563.49 179.415C556.454 176.483 553.224 173.153 551.801 167.318C550.788 163.191 550.377 151.407 551.007 144.832C552.102 133.475 556.509 128.807 567.952 126.9C577.178 125.363 599.325 125.875 618.461 128.067C625.852 128.921 638.856 130.828 648.82 132.536C653.283 133.304 655.938 133.646 655.993 133.447C656.157 132.906 661.879 82.2697 661.769 82.1843C661.577 81.9566 650.682 79.7649 644.358 78.6833C631.108 76.3778 619.528 74.9546 604.225 73.7876C600.365 73.503 570.799 73.1899 567.815 73.4176ZM1306.69 77.5733C1306.41 78.3987 1226.89 349.91 1226.89 350.052C1226.89 350.138 1240.71 350.166 1257.6 350.138L1288.35 350.052L1295.24 324.151C1299.02 309.891 1302.2 297.964 1302.31 297.594L1302.44 296.968L1346.46 297.025L1390.46 297.111L1397.44 323.297C1401.3 337.699 1404.5 349.654 1404.56 349.853C1404.67 350.138 1410.96 350.195 1435.38 350.138L1466.04 350.052L1425.91 213.713L1385.75 77.374L1346.27 77.2886C1314.85 77.2317 1306.77 77.2886 1306.69 77.5733ZM1361.25 188.58C1369.41 219.776 1376.09 245.393 1376.09 245.507C1376.09 245.649 1362.53 245.734 1345.94 245.734C1320.95 245.734 1315.83 245.677 1315.94 245.364C1316.02 245.137 1322.84 219.52 1331.08 188.438C1339.32 157.327 1346.16 131.881 1346.25 131.881C1346.33 131.881 1353.09 157.413 1361.25 188.58ZM776.282 146.568C771.519 146.824 765.715 147.337 763.005 147.707C727.471 152.688 706.665 172.157 700.999 205.8C699.575 214.254 699.548 214.595 699.438 246.446C699.301 277.784 699.411 282.509 700.478 290.393C702.422 304.853 707.322 317.633 714.55 326.997C724.761 340.261 740.502 348.885 760.787 352.301C770.122 353.895 776.501 354.293 788.738 354.094C803.357 353.838 815.703 352.415 830.76 349.198C841.491 346.921 857.314 342.196 857.314 341.314C857.314 340.972 849.403 298.448 849.211 297.794C849.102 297.367 848.965 297.367 847.787 297.708C836.618 301.238 817.537 304.511 802.097 305.536C795.308 305.991 780.908 305.735 777.158 305.109C765.934 303.202 760.596 299.302 757.913 290.963C756.79 287.433 756.298 283.79 756.106 276.959L755.942 271.067H859.504V250.061C859.504 228.258 859.258 218.922 858.519 212.062C855.179 180.553 841.956 161.17 817.565 152.062C811.405 149.785 802.891 147.906 794.897 147.138C790.654 146.711 779.649 146.369 776.282 146.568ZM786.958 193.077C792.899 193.846 796.704 195.525 799.852 198.77C804.315 203.409 805.656 208.248 805.684 219.975L805.711 226.806H756.161L756.079 222.537C755.86 210.81 757.803 204.121 762.813 199.282C765.907 196.322 769.739 194.415 774.393 193.533C778.39 192.764 783.153 192.593 786.958 193.077ZM1141.89 146.711C1131.13 147.479 1118.62 150.866 1106.11 156.388C1101.23 158.551 1093.95 162.365 1090.2 164.699L1087.24 166.549L1086.91 165.667C1086.72 165.155 1085.38 161.597 1083.96 157.726L1081.39 150.667H1036.9V294.833C1036.9 427.102 1036.93 439 1037.34 439C1037.58 439 1050.2 437.207 1065.37 435.015C1080.56 432.823 1093.1 431.03 1093.27 431.03C1093.49 431.03 1093.57 418.962 1093.57 389.815V348.572L1095.84 349.085C1105.59 351.333 1118.29 353.069 1131.02 353.923C1137.64 354.35 1150.89 354.123 1155.3 353.496C1173.89 350.792 1186.86 343.107 1195.51 329.701C1197.6 326.485 1200.85 319.54 1202.19 315.469C1204.27 309.151 1205.62 302.348 1206.55 293.695C1206.9 290.393 1206.99 283.761 1207.09 254.985C1207.23 219.719 1207.09 211.891 1206.22 204.463C1203.48 181.066 1194.83 164.699 1180.29 155.335C1172.41 150.24 1163.1 147.451 1151.47 146.682C1146.95 146.369 1146.27 146.369 1141.89 146.711ZM1132.71 197.916C1138.16 198.457 1141.58 199.852 1144.51 202.698C1147.44 205.544 1149.06 208.96 1149.82 213.941C1150.43 217.84 1150.43 282.879 1149.82 286.522C1148.51 294.293 1144.92 299.188 1138.76 301.522C1135.48 302.775 1132.88 303.059 1126.14 302.86C1119.98 302.689 1113.85 302.035 1106.71 300.839C1102.41 300.099 1096.55 298.904 1094.61 298.391L1093.57 298.078V213.343L1094.74 212.29C1096.55 210.668 1101.92 206.996 1105.09 205.231C1113.36 200.62 1120.89 198.286 1129.29 197.66C1129.59 197.66 1131.13 197.774 1132.71 197.916ZM1602.07 146.568C1585.92 147.564 1565.28 154.623 1549.05 164.699L1546.12 166.521L1544.77 162.935C1544.04 160.971 1542.72 157.384 1541.85 154.993L1540.23 150.667H1495.72V294.833C1495.72 428.042 1495.74 439 1496.16 439C1496.4 439 1509.05 437.207 1524.24 435.015C1539.44 432.823 1551.97 431.03 1552.11 431.03C1552.28 431.03 1552.39 415.859 1552.39 389.815V348.601L1557.4 349.654C1565.66 351.39 1572.86 352.415 1584.14 353.525C1590.57 354.151 1608.48 354.236 1612.89 353.667C1621.37 352.557 1629.17 350.252 1635.58 346.864C1640.84 344.132 1644.04 341.713 1648.2 337.386C1656.19 329.075 1661.07 318.857 1663.8 304.653C1665.83 294.122 1665.99 290.052 1665.99 250.288C1665.99 210.753 1665.83 206.797 1663.8 196.208C1658.25 167.176 1641.74 150.439 1615.35 147.138C1611.79 146.711 1604.92 146.397 1602.07 146.568ZM1591.81 197.916C1595.26 198.258 1597.23 198.827 1599.94 200.193C1604.13 202.328 1606.84 206.113 1608.31 211.863L1608.92 214.282V286.295L1608.31 288.685C1606.62 295.26 1602.78 299.786 1597.34 301.636C1593.75 302.86 1591.94 303.031 1585.24 302.86C1579.16 302.689 1575.35 302.319 1567.85 301.209C1564.1 300.64 1555.45 298.932 1553.43 298.363L1552.39 298.078V213.286L1553.97 212.005C1562.92 204.576 1575.55 198.912 1585.32 197.944C1588.49 197.603 1588.9 197.603 1591.81 197.916ZM999.942 147.422C987.596 150.781 968.268 159.547 955.456 167.603C953.321 168.969 952.117 169.567 952.007 169.367C951.925 169.168 950.994 164.899 949.981 159.832L948.12 150.667H900.842V350.195H957.51V228.429L960.466 226.436C970.239 219.861 987.212 211.151 1003.83 204.178C1006.13 203.21 1008.1 202.328 1008.21 202.242C1008.32 202.129 1007.36 189.804 1006.07 174.861C1004.81 159.918 1003.77 147.451 1003.77 147.166C1003.77 146.511 1003.12 146.54 999.942 147.422ZM1707.33 250.431V350.195H1764V150.667H1707.33V250.431Z" fill="url(#paint0_linear_250_69)"/>
<path d="M85.3779 320.47C90.8021 339.708 106.93 354.771 127.31 359.512V439H126.213C59.0872 439 4.20189 386.598 0.231445 320.47H85.3779ZM127.31 79.4873C102.111 85.3489 83.4102 106.994 83.4102 132.798C83.4104 163.104 109.207 187.673 141.028 187.673C172.85 187.673 198.647 163.104 198.647 132.798C198.647 106.993 179.946 85.3486 154.747 79.4873V0H312.787C380.284 0 435.406 52.9832 438.831 119.628H352.821C346.628 95.682 323.929 77.923 296.874 77.9229C265.052 77.9229 239.255 102.491 239.255 132.798C239.255 158.602 257.957 180.246 283.155 186.107V252.892C257.956 258.753 239.255 280.398 239.255 306.202C239.255 332.006 257.957 353.65 283.155 359.512V439H154.747V359.512C179.946 353.65 198.647 332.006 198.647 306.202C198.647 275.896 172.85 251.327 141.028 251.327C113.974 251.327 91.2749 269.087 85.0811 293.032H0V126.213C0 56.5077 56.5077 0 126.213 0H127.31V79.4873ZM439 312.787C439 382.492 382.492 439 312.787 439H310.593V359.512C335.791 353.65 354.492 332.006 354.492 306.202C354.492 280.398 335.791 258.753 310.593 252.892V186.107C330.972 181.367 347.101 166.304 352.525 147.065H439V312.787Z" fill="url(#paint1_linear_250_69)"/>
<defs>
<linearGradient id="paint0_linear_250_69" x1="545.5" y1="439" x2="1818" y2="4.50003" gradientUnits="userSpaceOnUse">
<stop stop-color="#377FEA"/>
<stop offset="1" stop-color="#5D46F0"/>
</linearGradient>
<linearGradient id="paint1_linear_250_69" x1="44.4488" y1="434.61" x2="395.1" y2="38.4125" gradientUnits="userSpaceOnUse">
<stop stop-color="#377FEA"/>
<stop offset="1" stop-color="#8C45EF"/>
</linearGradient>
</defs>
</svg>
