<svg width="4020" height="451" viewBox="0 0 4020 451" fill="none" xmlns="http://www.w3.org/2000/svg">
<path d="M3961.82 96.8876V129.053H4020V64.7222H3961.82V96.8876ZM2791.94 75.4245C2791.19 75.483 2788.52 75.6585 2786.04 75.8339C2766.87 77.179 2751.25 81.1266 2740.79 87.2965C2724.52 96.8876 2716.43 112.444 2714.23 138.411C2713.47 147.621 2713.62 167.155 2714.54 177.886C2717.33 210.461 2727.95 223.825 2759.48 234.468C2766.23 236.72 2774.97 239.089 2787.08 241.925C2792.7 243.24 2800.32 245.112 2804.03 246.077C2824.21 251.341 2830.73 255.58 2832.84 264.762C2834.3 271.166 2834.3 286.489 2832.86 293.389C2830.34 305.349 2822.72 309.706 2803.13 310.291C2777.39 311.11 2753.38 307.572 2724.55 298.741C2721.62 297.863 2719.15 297.249 2719.01 297.366C2718.76 297.688 2708.81 345.731 2708.98 345.907C2709.34 346.287 2718.65 350.088 2722.95 351.609C2739.78 357.603 2757.57 361.347 2778.45 363.306C2783.85 363.803 2804.34 363.978 2811.34 363.598C2848.89 361.493 2870.36 352.954 2882.47 335.292C2892.11 321.256 2895.62 301.022 2894.42 266.488C2893.77 248.124 2892.31 239.556 2888.34 230.959C2880.62 214.233 2863.33 204.612 2822.16 194.086C2796.08 187.419 2792.67 186.454 2787.5 184.319C2780.28 181.307 2776.96 177.886 2775.5 171.892C2774.46 167.652 2774.04 155.546 2774.69 148.791C2775.81 137.124 2780.34 132.328 2792.08 130.369C2801.56 128.79 2824.29 129.316 2843.94 131.568C2851.53 132.445 2864.88 134.404 2875.11 136.159C2879.69 136.948 2882.41 137.299 2882.47 137.095C2882.64 136.539 2888.51 84.5186 2888.4 84.4309C2888.2 84.1969 2877.02 81.9453 2870.53 80.8342C2856.92 78.4656 2845.03 77.0035 2829.32 75.8046C2825.36 75.5123 2795.01 75.1906 2791.94 75.4245ZM3550.51 79.6938C3550.22 80.5418 3468.58 359.475 3468.58 359.621C3468.58 359.709 3482.77 359.738 3500.11 359.709L3531.68 359.621L3538.75 333.012C3542.63 318.362 3545.9 306.109 3546.01 305.729L3546.14 305.086L3591.34 305.144L3636.51 305.233L3643.67 332.134C3647.64 346.93 3650.92 359.212 3650.98 359.416C3651.1 359.709 3657.55 359.768 3682.62 359.709L3714.1 359.621L3672.9 219.555L3631.67 79.4891L3591.14 79.4013C3558.88 79.3429 3550.59 79.4013 3550.51 79.6938ZM3606.52 193.735C3614.9 225.784 3621.75 252.101 3621.75 252.218C3621.75 252.364 3607.83 252.451 3590.8 252.451C3565.15 252.451 3559.89 252.393 3560 252.071C3560.08 251.838 3567.09 225.521 3575.55 193.589C3584 161.628 3591.03 135.486 3591.12 135.486C3591.2 135.486 3598.14 161.716 3606.52 193.735ZM3005.97 150.574C3001.08 150.837 2995.12 151.365 2992.33 151.745C2955.85 156.862 2934.49 176.863 2928.68 211.426C2927.21 220.111 2927.19 220.461 2927.07 253.183C2926.93 285.377 2927.05 290.231 2928.14 298.331C2930.14 313.186 2935.17 326.316 2942.59 335.936C2953.07 349.562 2969.23 358.422 2990.06 361.931C2999.64 363.569 3006.19 363.978 3018.75 363.773C3033.76 363.51 3046.44 362.048 3061.89 358.743C3072.91 356.404 3089.16 351.55 3089.16 350.644C3089.16 350.293 3081.03 306.606 3080.84 305.934C3080.73 305.496 3080.58 305.496 3079.38 305.846C3067.91 309.472 3048.32 312.835 3032.47 313.888C3025.5 314.355 3010.71 314.092 3006.86 313.449C2995.34 311.49 2989.86 307.483 2987.11 298.917C2985.95 295.29 2985.45 291.547 2985.25 284.53L2985.08 278.477H3091.4V256.896C3091.4 234.497 3091.15 224.906 3090.39 217.859C3086.96 185.488 3073.39 165.576 3048.35 156.219C3042.02 153.879 3033.28 151.949 3025.08 151.16C3020.72 150.721 3009.42 150.37 3005.97 150.574ZM3016.93 198.355C3023.02 199.145 3026.93 200.87 3030.16 204.203C3034.75 208.969 3036.12 213.941 3036.15 225.988L3036.18 233.006H2985.31L2985.22 228.62C2985 216.573 2986.99 209.701 2992.14 204.729C2995.31 201.689 2999.25 199.729 3004.03 198.823C3008.13 198.033 3013.02 197.858 3016.93 198.355ZM3381.31 150.721C3370.27 151.51 3357.42 154.99 3344.58 160.663C3339.57 162.885 3332.1 166.803 3328.25 169.201L3325.21 171.102L3324.87 170.196C3324.67 169.67 3323.3 166.014 3321.84 162.037L3319.2 154.786H3273.53V302.892C3273.53 438.777 3273.56 451 3273.98 451C3274.23 451 3287.18 449.158 3302.76 446.906C3318.35 444.654 3331.22 442.812 3331.4 442.812C3331.62 442.812 3331.71 430.414 3331.71 400.471V358.1L3334.04 358.627C3344.05 360.937 3357.09 362.72 3370.15 363.598C3376.95 364.036 3390.55 363.803 3395.08 363.159C3414.17 360.381 3427.48 352.486 3436.36 338.713C3438.51 335.409 3441.85 328.275 3443.22 324.092C3445.36 317.602 3446.74 310.613 3447.7 301.723C3448.06 298.331 3448.15 291.518 3448.25 261.955C3448.4 225.725 3448.25 217.683 3447.36 210.052C3444.55 186.015 3435.67 169.201 3420.74 159.581C3412.65 154.347 3403.09 151.482 3391.15 150.692C3386.51 150.37 3385.81 150.37 3381.31 150.721ZM3371.89 203.326C3377.49 203.882 3381 205.315 3384 208.239C3387.01 211.163 3388.68 214.672 3389.46 219.789C3390.08 223.795 3390.08 290.612 3389.46 294.354C3388.11 302.338 3384.43 307.366 3378.1 309.764C3374.73 311.051 3372.06 311.343 3365.14 311.139C3358.82 310.963 3352.53 310.291 3345.2 309.062C3340.78 308.302 3334.77 307.075 3332.77 306.548L3331.71 306.226V219.175L3332.91 218.093C3334.77 216.427 3340.28 212.654 3343.53 210.841C3352.02 206.104 3359.76 203.706 3368.38 203.063C3368.69 203.063 3370.27 203.18 3371.89 203.326ZM3853.76 150.574C3837.18 151.598 3815.99 158.85 3799.32 169.201L3796.31 171.073L3794.93 167.389C3794.18 165.371 3792.82 161.686 3791.93 159.23L3790.27 154.786H3744.57V302.892C3744.57 439.743 3744.59 451 3745.02 451C3745.27 451 3758.26 449.158 3773.85 446.906C3789.46 444.654 3802.32 442.812 3802.46 442.812C3802.64 442.812 3802.75 427.227 3802.75 400.471V358.13L3807.9 359.212C3816.38 360.995 3823.77 362.048 3835.35 363.189C3841.95 363.832 3860.34 363.919 3864.86 363.335C3873.57 362.194 3881.58 359.826 3888.16 356.346C3893.56 353.539 3896.84 351.054 3901.11 346.608C3909.32 338.07 3914.33 327.573 3917.13 312.981C3919.21 302.162 3919.38 297.981 3919.38 257.13C3919.38 216.514 3919.21 212.45 3917.13 201.571C3911.43 171.746 3894.48 154.551 3867.39 151.16C3863.73 150.721 3856.68 150.399 3853.76 150.574ZM3843.22 203.326C3846.76 203.677 3848.79 204.262 3851.57 205.665C3855.87 207.859 3858.65 211.747 3860.16 217.654L3860.79 220.139V294.121L3860.16 296.576C3858.43 303.331 3854.48 307.981 3848.9 309.881C3845.21 311.139 3843.36 311.314 3836.48 311.139C3830.24 310.963 3826.32 310.583 3818.62 309.443C3814.77 308.858 3805.89 307.103 3803.82 306.519L3802.75 306.226V219.116L3804.37 217.8C3813.56 210.168 3826.53 204.349 3836.56 203.355C3839.81 203.005 3840.23 203.005 3843.22 203.326ZM3235.58 151.452C3222.91 154.903 3203.07 163.908 3189.91 172.184C3187.72 173.588 3186.49 174.202 3186.37 173.997C3186.29 173.792 3185.33 169.407 3184.29 164.201L3182.38 154.786H3133.84V359.768H3192.02V234.673L3195.06 232.626C3205.09 225.871 3222.52 216.923 3239.58 209.759C3241.94 208.765 3243.96 207.859 3244.07 207.77C3244.19 207.654 3243.2 194.992 3241.88 179.641C3240.58 164.289 3239.51 151.482 3239.51 151.189C3239.51 150.516 3238.85 150.546 3235.58 151.452ZM3961.82 257.277V359.768H4020V154.786H3961.82V257.277Z" fill="url(#paint0_linear_2130_18)"/>
<path d="M2296.65 329.23C2302.22 348.994 2318.78 364.469 2339.7 369.339V451H2338.58C2269.66 451 2213.31 397.166 2209.24 329.23H2296.65ZM2339.7 81.6601C2313.83 87.6819 2294.63 109.919 2294.63 136.428C2294.63 167.562 2321.12 192.803 2353.79 192.803C2386.46 192.803 2412.94 167.562 2412.94 136.428C2412.94 109.918 2393.74 87.6816 2367.87 81.6601V0H2530.12C2599.42 0 2656.01 54.4315 2659.52 122.898H2571.22C2564.86 98.2974 2541.56 80.053 2513.78 80.0529C2481.11 80.0529 2454.63 105.293 2454.63 136.428C2454.63 162.937 2473.83 185.173 2499.7 191.194V259.805C2473.83 265.826 2454.63 288.063 2454.63 314.572C2454.63 341.081 2473.83 363.317 2499.7 369.339V451H2367.87V369.339C2393.74 363.317 2412.94 341.081 2412.94 314.572C2412.94 283.438 2386.46 258.197 2353.79 258.197C2326.01 258.197 2302.71 276.442 2296.35 301.042H2209V129.663C2209 58.0523 2267.01 0 2338.58 0H2339.7V81.6601ZM2659.7 321.337C2659.7 392.947 2601.68 451 2530.12 451H2527.87V369.339C2553.74 363.317 2572.94 341.081 2572.94 314.572C2572.94 288.063 2553.74 265.826 2527.87 259.805V191.194C2548.79 186.325 2565.35 170.85 2570.92 151.085H2659.7V321.337Z" fill="url(#paint1_linear_2130_18)"/>
<path d="M232.812 199.55C232.812 211.556 229.854 222.518 223.938 232.436C218.196 242.18 210.366 250.01 200.448 255.926C190.53 261.842 179.568 264.8 167.562 264.8H62.64V238.961H167.562C174.87 238.961 181.482 237.221 187.398 233.741C193.314 230.087 198.012 225.302 201.492 219.386C204.972 213.296 206.712 206.684 206.712 199.55C206.712 192.242 204.972 185.63 201.492 179.714C198.012 173.798 193.314 169.1 187.398 165.62C181.482 162.14 174.87 160.4 167.562 160.4H48.024V317H21.924V134.3H167.562C179.568 134.3 190.53 137.258 200.448 143.174C210.366 148.916 218.196 156.746 223.938 166.664C229.854 176.582 232.812 187.544 232.812 199.55ZM426.235 244.964C426.235 258.188 423.451 270.281 417.883 281.243C412.489 292.031 404.833 300.731 394.915 307.343C384.997 313.781 373.426 317 360.202 317H314.788C301.564 317 289.906 313.781 279.814 307.343C269.896 300.731 262.153 292.031 256.585 281.243C251.191 270.281 248.494 258.188 248.494 244.964C248.494 231.74 251.191 219.734 256.585 208.946C262.153 198.158 269.896 189.545 279.814 183.107C289.906 176.669 301.564 173.45 314.788 173.45H360.202C373.426 173.45 384.997 176.669 394.915 183.107C404.833 189.545 412.489 198.158 417.883 208.946C423.451 219.734 426.235 231.74 426.235 244.964ZM400.135 244.964C400.135 236.612 398.569 228.956 395.437 221.996C392.305 215.036 387.694 209.555 381.604 205.553C375.688 201.377 368.554 199.289 360.202 199.289H314.788C306.436 199.289 299.215 201.377 293.125 205.553C287.209 209.555 282.598 215.036 279.292 221.996C276.16 228.956 274.594 236.612 274.594 244.964C274.594 253.316 276.16 260.972 279.292 267.932C282.598 274.892 287.209 280.46 293.125 284.636C299.215 288.812 306.436 290.9 314.788 290.9H360.202C368.554 290.9 375.688 288.812 381.604 284.636C387.694 280.46 392.305 274.892 395.437 267.932C398.569 260.972 400.135 253.316 400.135 244.964ZM637.851 264.539C637.851 274.109 635.502 282.896 630.804 290.9C626.106 298.904 619.755 305.255 611.751 309.953C603.747 314.651 594.873 317 585.129 317C577.473 317 570.252 315.347 563.466 312.041C556.854 308.735 551.112 304.298 546.24 298.73C541.368 304.298 535.452 308.735 528.492 312.041C521.532 315.347 514.05 317 506.046 317C496.476 317 487.689 314.651 479.685 309.953C471.855 305.255 465.504 298.904 460.632 290.9C455.934 282.896 453.585 274.109 453.585 264.539V173.45H479.685V264.539C479.685 272.021 482.208 278.285 487.254 283.331C492.474 288.377 498.738 290.9 506.046 290.9C513.528 290.9 519.792 288.377 524.838 283.331C530.058 278.285 532.668 272.021 532.668 264.539V173.45H559.029V261.407C559.029 269.585 561.552 276.545 566.598 282.287C571.644 288.029 577.821 290.9 585.129 290.9C592.611 290.9 598.875 288.377 603.921 283.331C609.141 278.285 611.751 272.021 611.751 264.539V173.45H637.851V264.539ZM823.655 317H673.841V172.928H823.655V199.289H700.202V290.639H823.655V317ZM806.951 257.492H712.469V231.131H806.951V257.492ZM1021.38 317H985.885L945.169 278.111H892.186V252.272H964.483C971.791 252.272 977.968 249.662 983.014 244.442C988.234 239.048 990.844 232.784 990.844 225.65C990.844 218.342 988.234 212.165 983.014 207.119C977.968 201.899 971.791 199.289 964.483 199.289H878.614V317H852.514V173.45H964.483C974.227 173.45 983.014 175.799 990.844 180.497C998.674 185.195 1004.94 191.546 1009.64 199.55C1014.33 207.38 1016.68 216.08 1016.68 225.65C1016.68 233.48 1015.03 240.875 1011.72 247.835C1008.59 254.621 1004.15 260.537 998.413 265.583C992.845 270.455 986.407 273.935 979.099 276.023L1021.38 317ZM1197.57 317H1047.75V172.928H1197.57V199.289H1074.11V290.639H1197.57V317ZM1180.86 257.492H1086.38V231.131H1180.86V257.492ZM1396.6 244.703C1396.6 258.101 1393.81 270.281 1388.25 281.243C1382.68 292.205 1374.85 300.905 1364.76 307.343C1354.66 313.781 1342.92 317 1329.52 317H1265.32V290.639H1329.52C1338.05 290.639 1345.27 288.638 1351.18 284.636C1357.27 280.46 1361.97 274.892 1365.28 267.932C1368.58 260.972 1370.24 253.229 1370.24 244.703C1370.24 236.177 1368.58 228.521 1365.28 221.735C1361.97 214.949 1357.27 209.555 1351.18 205.553C1345.27 201.377 1338.05 199.289 1329.52 199.289H1253.05V317H1226.43V172.928H1329.52C1342.92 172.928 1354.66 176.147 1364.76 182.585C1374.85 189.023 1382.68 197.636 1388.25 208.424C1393.81 219.212 1396.6 231.305 1396.6 244.703ZM1741.56 264.8C1741.56 274.37 1739.21 283.157 1734.51 291.161C1729.82 298.991 1723.47 305.255 1715.46 309.953C1707.63 314.651 1698.93 317 1689.36 317H1565.65V290.9H1689.36C1696.5 290.9 1702.59 288.377 1707.63 283.331C1712.85 278.111 1715.46 271.934 1715.46 264.8C1715.46 257.666 1712.85 251.576 1707.63 246.53C1702.59 241.31 1696.5 238.7 1689.36 238.7H1565.65V212.6H1663.26C1670.4 212.6 1676.49 210.077 1681.53 205.031C1686.75 199.811 1689.36 193.634 1689.36 186.5C1689.36 179.366 1686.75 173.276 1681.53 168.23C1676.49 163.01 1670.4 160.4 1663.26 160.4H1552.6V317H1526.5V134.3H1663.26C1672.83 134.3 1681.53 136.649 1689.36 141.347C1697.37 146.045 1703.72 152.396 1708.41 160.4C1713.11 168.23 1715.46 176.93 1715.46 186.5C1715.46 191.894 1714.68 197.114 1713.11 202.16C1711.55 207.032 1709.37 211.556 1706.59 215.732C1716.85 219.212 1725.21 225.476 1731.64 234.524C1738.26 243.398 1741.56 253.49 1741.56 264.8ZM1928.28 274.718C1928.28 282.548 1925.93 289.682 1921.24 296.12C1916.54 302.384 1910.19 307.43 1902.18 311.258C1894.35 315.086 1885.65 317 1876.08 317H1763.85V290.9H1876.08C1883.22 290.9 1889.31 289.334 1894.35 286.202C1899.57 283.07 1902.18 279.242 1902.18 274.718V268.193H1815.79C1806.22 268.193 1797.52 265.844 1789.69 261.146C1781.86 256.448 1775.6 250.184 1770.9 242.354C1766.2 234.35 1763.85 225.563 1763.85 215.993V173.45H1789.69V215.993C1789.69 223.301 1792.21 229.478 1797.26 234.524C1802.48 239.57 1808.66 242.093 1815.79 242.093H1902.18V173.45H1928.28V274.718ZM2099.5 192.764C2099.5 198.158 2097.59 202.769 2093.76 206.597C2089.93 210.425 2085.32 212.339 2079.93 212.339C2074.54 212.339 2069.92 210.425 2066.1 206.597C2062.27 202.769 2060.35 198.158 2060.35 192.764C2060.35 187.37 2062.27 182.759 2066.1 178.931C2069.92 175.103 2074.54 173.189 2079.93 173.189C2085.32 173.189 2089.93 175.103 2093.76 178.931C2097.59 182.759 2099.5 187.37 2099.5 192.764ZM2099.5 297.425C2099.5 302.819 2097.59 307.43 2093.76 311.258C2089.93 315.086 2085.32 317 2079.93 317C2074.54 317 2069.92 315.086 2066.1 311.258C2062.27 307.43 2060.35 302.819 2060.35 297.425C2060.35 292.031 2062.27 287.42 2066.1 283.592C2069.92 279.764 2074.54 277.85 2079.93 277.85C2085.32 277.85 2089.93 279.764 2093.76 283.592C2097.59 287.42 2099.5 292.031 2099.5 297.425Z" fill="white"/>
<defs>
<linearGradient id="paint0_linear_2130_18" x1="2769.03" y1="451" x2="4075.62" y2="5.16073" gradientUnits="userSpaceOnUse">
<stop stop-color="#377FEA"/>
<stop offset="1" stop-color="#5D46F0"/>
</linearGradient>
<linearGradient id="paint1_linear_2130_18" x1="2254.63" y1="446.49" x2="2614.9" y2="39.703" gradientUnits="userSpaceOnUse">
<stop stop-color="#377FEA"/>
<stop offset="1" stop-color="#8C45EF"/>
</linearGradient>
</defs>
</svg>
